<mxfile host="app.diagrams.net" modified="2020-10-26T10:19:37.618Z" agent="5.0 (Windows NT 10.0; Win64; x64) AppleWebKit/537.36 (KHTML, like Gecko) Brave Chrome/83.0.4103.116 Safari/537.36" etag="nZdlsri4orPm1Su9DPkC" version="13.8.2" type="github">
  <diagram id="FgnCRWxlPdFpiq8BXmdk" name="Page-1">
    <mxGraphModel dx="870" dy="1764" grid="1" gridSize="10" guides="1" tooltips="1" connect="1" arrows="1" fold="1" page="1" pageScale="1" pageWidth="827" pageHeight="1169" math="0" shadow="0">
      <root>
        <mxCell id="0" />
        <mxCell id="1" parent="0" />
        <mxCell id="7nph9EpMlqqTChqG_4Ui-2" value="" style="endArrow=none;dashed=1;html=1;dashPattern=1 3;strokeWidth=2;" edge="1" parent="1">
          <mxGeometry width="50" height="50" relative="1" as="geometry">
            <mxPoint x="400" y="730" as="sourcePoint" />
            <mxPoint x="400" y="10" as="targetPoint" />
          </mxGeometry>
        </mxCell>
        <mxCell id="7nph9EpMlqqTChqG_4Ui-3" value="User" style="text;html=1;align=center;verticalAlign=middle;resizable=0;points=[];autosize=1;" vertex="1" parent="1">
          <mxGeometry x="300" y="-30" width="40" height="20" as="geometry" />
        </mxCell>
        <mxCell id="7nph9EpMlqqTChqG_4Ui-4" value="" style="endArrow=classic;html=1;exitX=0.5;exitY=1;exitDx=0;exitDy=0;exitPerimeter=0;" edge="1" parent="1" source="7nph9EpMlqqTChqG_4Ui-17" target="7nph9EpMlqqTChqG_4Ui-5">
          <mxGeometry width="50" height="50" relative="1" as="geometry">
            <mxPoint x="316" y="40" as="sourcePoint" />
            <mxPoint x="316" y="70" as="targetPoint" />
          </mxGeometry>
        </mxCell>
        <mxCell id="7nph9EpMlqqTChqG_4Ui-5" value="Create Recipe" style="rounded=1;whiteSpace=wrap;html=1;" vertex="1" parent="1">
          <mxGeometry x="256" y="70" width="120" height="20" as="geometry" />
        </mxCell>
        <mxCell id="7nph9EpMlqqTChqG_4Ui-6" value="" style="endArrow=classic;html=1;" edge="1" parent="1">
          <mxGeometry width="50" height="50" relative="1" as="geometry">
            <mxPoint x="320" y="90" as="sourcePoint" />
            <mxPoint x="320" y="120" as="targetPoint" />
          </mxGeometry>
        </mxCell>
        <mxCell id="7nph9EpMlqqTChqG_4Ui-7" value="Enter name of recipe" style="rounded=1;whiteSpace=wrap;html=1;" vertex="1" parent="1">
          <mxGeometry x="256" y="120" width="120" height="20" as="geometry" />
        </mxCell>
        <mxCell id="7nph9EpMlqqTChqG_4Ui-8" value="" style="endArrow=classic;html=1;exitX=0.5;exitY=1;exitDx=0;exitDy=0;" edge="1" parent="1" source="7nph9EpMlqqTChqG_4Ui-7">
          <mxGeometry width="50" height="50" relative="1" as="geometry">
            <mxPoint x="330" y="100" as="sourcePoint" />
            <mxPoint x="316" y="170" as="targetPoint" />
          </mxGeometry>
        </mxCell>
        <mxCell id="7nph9EpMlqqTChqG_4Ui-9" value="Add Ingredient&amp;nbsp;" style="rounded=1;whiteSpace=wrap;html=1;" vertex="1" parent="1">
          <mxGeometry x="260" y="170" width="120" height="20" as="geometry" />
        </mxCell>
        <mxCell id="7nph9EpMlqqTChqG_4Ui-10" value="" style="endArrow=classic;html=1;exitX=0.5;exitY=1;exitDx=0;exitDy=0;entryX=1;entryY=0.75;entryDx=0;entryDy=0;" edge="1" parent="1" source="7nph9EpMlqqTChqG_4Ui-21" target="7nph9EpMlqqTChqG_4Ui-13">
          <mxGeometry width="50" height="50" relative="1" as="geometry">
            <mxPoint x="310" y="290" as="sourcePoint" />
            <mxPoint x="390" y="240" as="targetPoint" />
            <Array as="points">
              <mxPoint x="745" y="243" />
              <mxPoint x="570" y="243" />
            </Array>
          </mxGeometry>
        </mxCell>
        <mxCell id="7nph9EpMlqqTChqG_4Ui-11" value="Select from List" style="edgeLabel;html=1;align=center;verticalAlign=middle;resizable=0;points=[];" vertex="1" connectable="0" parent="7nph9EpMlqqTChqG_4Ui-10">
          <mxGeometry x="0.1284" y="-5" relative="1" as="geometry">
            <mxPoint as="offset" />
          </mxGeometry>
        </mxCell>
        <mxCell id="7nph9EpMlqqTChqG_4Ui-12" value="" style="edgeStyle=orthogonalEdgeStyle;rounded=0;orthogonalLoop=1;jettySize=auto;html=1;" edge="1" parent="1" source="7nph9EpMlqqTChqG_4Ui-13" target="7nph9EpMlqqTChqG_4Ui-15">
          <mxGeometry relative="1" as="geometry" />
        </mxCell>
        <mxCell id="7nph9EpMlqqTChqG_4Ui-13" value="Set amount of Ingredient" style="rounded=1;whiteSpace=wrap;html=1;" vertex="1" parent="1">
          <mxGeometry x="260" y="220" width="120" height="30" as="geometry" />
        </mxCell>
        <mxCell id="7nph9EpMlqqTChqG_4Ui-14" value="" style="endArrow=classic;html=1;exitX=0.5;exitY=1;exitDx=0;exitDy=0;" edge="1" parent="1" source="7nph9EpMlqqTChqG_4Ui-13">
          <mxGeometry width="50" height="50" relative="1" as="geometry">
            <mxPoint x="330" y="200" as="sourcePoint" />
            <mxPoint x="320" y="280" as="targetPoint" />
          </mxGeometry>
        </mxCell>
        <mxCell id="7nph9EpMlqqTChqG_4Ui-15" value="Click Add Material Button" style="rounded=1;whiteSpace=wrap;html=1;" vertex="1" parent="1">
          <mxGeometry x="260" y="280" width="120" height="30" as="geometry" />
        </mxCell>
        <mxCell id="7nph9EpMlqqTChqG_4Ui-16" value="Store Recipe" style="rounded=1;whiteSpace=wrap;html=1;" vertex="1" parent="1">
          <mxGeometry x="510" y="529" width="120" height="20" as="geometry" />
        </mxCell>
        <mxCell id="7nph9EpMlqqTChqG_4Ui-17" value="" style="verticalLabelPosition=bottom;verticalAlign=top;html=1;shape=mxgraph.flowchart.on-page_reference;fillColor=#000000;" vertex="1" parent="1">
          <mxGeometry x="299" width="34" height="30" as="geometry" />
        </mxCell>
        <mxCell id="7nph9EpMlqqTChqG_4Ui-18" value="System" style="text;html=1;align=center;verticalAlign=middle;resizable=0;points=[];autosize=1;" vertex="1" parent="1">
          <mxGeometry x="480" y="-20" width="60" height="20" as="geometry" />
        </mxCell>
        <mxCell id="7nph9EpMlqqTChqG_4Ui-19" value="" style="endArrow=none;dashed=1;html=1;dashPattern=1 3;strokeWidth=2;" edge="1" parent="1">
          <mxGeometry width="50" height="50" relative="1" as="geometry">
            <mxPoint x="630" y="710" as="sourcePoint" />
            <mxPoint x="630" y="10" as="targetPoint" />
          </mxGeometry>
        </mxCell>
        <mxCell id="7nph9EpMlqqTChqG_4Ui-20" value="UI" style="text;html=1;align=center;verticalAlign=middle;resizable=0;points=[];autosize=1;" vertex="1" parent="1">
          <mxGeometry x="705" y="-20" width="30" height="20" as="geometry" />
        </mxCell>
        <mxCell id="7nph9EpMlqqTChqG_4Ui-21" value="Show Dialog for Select Ingredient" style="rounded=1;whiteSpace=wrap;html=1;" vertex="1" parent="1">
          <mxGeometry x="680" y="165" width="130" height="30" as="geometry" />
        </mxCell>
        <mxCell id="7nph9EpMlqqTChqG_4Ui-22" value="" style="endArrow=classic;html=1;exitX=1;exitY=0.5;exitDx=0;exitDy=0;" edge="1" parent="1" source="7nph9EpMlqqTChqG_4Ui-9">
          <mxGeometry width="50" height="50" relative="1" as="geometry">
            <mxPoint x="430" y="190" as="sourcePoint" />
            <mxPoint x="680" y="180" as="targetPoint" />
          </mxGeometry>
        </mxCell>
        <mxCell id="7nph9EpMlqqTChqG_4Ui-23" value="Add Description" style="rounded=1;whiteSpace=wrap;html=1;" vertex="1" parent="1">
          <mxGeometry x="260" y="389" width="120" height="20" as="geometry" />
        </mxCell>
        <mxCell id="7nph9EpMlqqTChqG_4Ui-24" value="" style="endArrow=classic;html=1;exitX=1;exitY=0.5;exitDx=0;exitDy=0;entryX=0;entryY=0.5;entryDx=0;entryDy=0;" edge="1" parent="1" source="7nph9EpMlqqTChqG_4Ui-16" target="7nph9EpMlqqTChqG_4Ui-25">
          <mxGeometry width="50" height="50" relative="1" as="geometry">
            <mxPoint x="330" y="359" as="sourcePoint" />
            <mxPoint x="690" y="399" as="targetPoint" />
          </mxGeometry>
        </mxCell>
        <mxCell id="7nph9EpMlqqTChqG_4Ui-25" value="Show Home Screen" style="rounded=1;whiteSpace=wrap;html=1;" vertex="1" parent="1">
          <mxGeometry x="690" y="569" width="120" height="20" as="geometry" />
        </mxCell>
        <mxCell id="7nph9EpMlqqTChqG_4Ui-26" value="" style="ellipse;html=1;shape=endState;fillColor=#000000;strokeColor=#ff0000;" vertex="1" parent="1">
          <mxGeometry x="735" y="629" width="30" height="30" as="geometry" />
        </mxCell>
        <mxCell id="7nph9EpMlqqTChqG_4Ui-27" value="" style="endArrow=classic;html=1;exitX=0.5;exitY=1;exitDx=0;exitDy=0;entryX=0.5;entryY=0;entryDx=0;entryDy=0;" edge="1" parent="1" source="7nph9EpMlqqTChqG_4Ui-25" target="7nph9EpMlqqTChqG_4Ui-26">
          <mxGeometry width="50" height="50" relative="1" as="geometry">
            <mxPoint x="390" y="319" as="sourcePoint" />
            <mxPoint x="440" y="269" as="targetPoint" />
          </mxGeometry>
        </mxCell>
        <mxCell id="7nph9EpMlqqTChqG_4Ui-28" value="" style="rhombus;whiteSpace=wrap;html=1;fillColor=#FFFFFF;" vertex="1" parent="1">
          <mxGeometry x="460" y="449" width="50" height="60" as="geometry" />
        </mxCell>
        <mxCell id="7nph9EpMlqqTChqG_4Ui-29" value="Click Save Button" style="rounded=1;whiteSpace=wrap;html=1;" vertex="1" parent="1">
          <mxGeometry x="260" y="439" width="120" height="20" as="geometry" />
        </mxCell>
        <mxCell id="7nph9EpMlqqTChqG_4Ui-30" value="" style="endArrow=classic;html=1;exitX=0.5;exitY=1;exitDx=0;exitDy=0;entryX=0.5;entryY=0;entryDx=0;entryDy=0;" edge="1" parent="1" source="7nph9EpMlqqTChqG_4Ui-23" target="7nph9EpMlqqTChqG_4Ui-29">
          <mxGeometry width="50" height="50" relative="1" as="geometry">
            <mxPoint x="390" y="449" as="sourcePoint" />
            <mxPoint x="440" y="399" as="targetPoint" />
          </mxGeometry>
        </mxCell>
        <mxCell id="7nph9EpMlqqTChqG_4Ui-31" value="" style="endArrow=classic;html=1;exitX=1;exitY=0.5;exitDx=0;exitDy=0;entryX=0.5;entryY=0;entryDx=0;entryDy=0;" edge="1" parent="1" source="7nph9EpMlqqTChqG_4Ui-29" target="7nph9EpMlqqTChqG_4Ui-28">
          <mxGeometry width="50" height="50" relative="1" as="geometry">
            <mxPoint x="390" y="449" as="sourcePoint" />
            <mxPoint x="440" y="399" as="targetPoint" />
          </mxGeometry>
        </mxCell>
        <mxCell id="7nph9EpMlqqTChqG_4Ui-32" value="" style="endArrow=classic;html=1;exitX=1;exitY=0.5;exitDx=0;exitDy=0;entryX=0;entryY=0.5;entryDx=0;entryDy=0;" edge="1" parent="1" source="7nph9EpMlqqTChqG_4Ui-28" target="7nph9EpMlqqTChqG_4Ui-16">
          <mxGeometry width="50" height="50" relative="1" as="geometry">
            <mxPoint x="550" y="529" as="sourcePoint" />
            <mxPoint x="540" y="479" as="targetPoint" />
            <Array as="points">
              <mxPoint x="510" y="479" />
            </Array>
          </mxGeometry>
        </mxCell>
        <mxCell id="7nph9EpMlqqTChqG_4Ui-33" value="required fields&amp;nbsp;" style="text;html=1;align=center;verticalAlign=middle;resizable=0;points=[];autosize=1;" vertex="1" parent="1">
          <mxGeometry x="410" y="429" width="90" height="20" as="geometry" />
        </mxCell>
        <mxCell id="7nph9EpMlqqTChqG_4Ui-34" value="yes" style="text;html=1;align=center;verticalAlign=middle;resizable=0;points=[];autosize=1;" vertex="1" parent="1">
          <mxGeometry x="510" y="479" width="30" height="20" as="geometry" />
        </mxCell>
        <mxCell id="7nph9EpMlqqTChqG_4Ui-35" value="" style="endArrow=classic;html=1;exitX=0.5;exitY=1;exitDx=0;exitDy=0;" edge="1" parent="1" source="7nph9EpMlqqTChqG_4Ui-28">
          <mxGeometry width="50" height="50" relative="1" as="geometry">
            <mxPoint x="500" y="719" as="sourcePoint" />
            <mxPoint x="700" y="729" as="targetPoint" />
            <Array as="points">
              <mxPoint x="485" y="729" />
            </Array>
          </mxGeometry>
        </mxCell>
        <mxCell id="7nph9EpMlqqTChqG_4Ui-36" value="Show Error Dialog" style="rounded=1;whiteSpace=wrap;html=1;fillColor=#FFFFFF;" vertex="1" parent="1">
          <mxGeometry x="700" y="719" width="90" height="30" as="geometry" />
        </mxCell>
        <mxCell id="7nph9EpMlqqTChqG_4Ui-37" value="no" style="text;html=1;align=center;verticalAlign=middle;resizable=0;points=[];autosize=1;" vertex="1" parent="1">
          <mxGeometry x="485" y="614" width="30" height="20" as="geometry" />
        </mxCell>
        <mxCell id="7nph9EpMlqqTChqG_4Ui-38" value="" style="endArrow=classic;html=1;exitX=1;exitY=0.5;exitDx=0;exitDy=0;" edge="1" parent="1">
          <mxGeometry width="50" height="50" relative="1" as="geometry">
            <mxPoint x="380" y="294.5" as="sourcePoint" />
            <mxPoint x="680" y="294.5" as="targetPoint" />
          </mxGeometry>
        </mxCell>
        <mxCell id="7nph9EpMlqqTChqG_4Ui-39" value="Add new Text-Field in Material List" style="rounded=1;whiteSpace=wrap;html=1;" vertex="1" parent="1">
          <mxGeometry x="680" y="280" width="130" height="30" as="geometry" />
        </mxCell>
        <mxCell id="7nph9EpMlqqTChqG_4Ui-40" value="Enter Material Name" style="rounded=1;whiteSpace=wrap;html=1;" vertex="1" parent="1">
          <mxGeometry x="260" y="330" width="120" height="30" as="geometry" />
        </mxCell>
        <mxCell id="7nph9EpMlqqTChqG_4Ui-41" value="" style="endArrow=classic;html=1;exitX=0.5;exitY=1;exitDx=0;exitDy=0;entryX=0.5;entryY=0;entryDx=0;entryDy=0;" edge="1" parent="1" source="7nph9EpMlqqTChqG_4Ui-40" target="7nph9EpMlqqTChqG_4Ui-23">
          <mxGeometry width="50" height="50" relative="1" as="geometry">
            <mxPoint x="330" y="260" as="sourcePoint" />
            <mxPoint x="330" y="290" as="targetPoint" />
          </mxGeometry>
        </mxCell>
        <mxCell id="7nph9EpMlqqTChqG_4Ui-42" value="" style="endArrow=classic;html=1;entryX=1;entryY=0.75;entryDx=0;entryDy=0;exitX=0.5;exitY=1;exitDx=0;exitDy=0;" edge="1" parent="1" source="7nph9EpMlqqTChqG_4Ui-39">
          <mxGeometry width="50" height="50" relative="1" as="geometry">
            <mxPoint x="745" y="320" as="sourcePoint" />
            <mxPoint x="380" y="347.5" as="targetPoint" />
            <Array as="points">
              <mxPoint x="745" y="348" />
              <mxPoint x="570" y="348" />
            </Array>
          </mxGeometry>
        </mxCell>
        <mxCell id="7nph9EpMlqqTChqG_4Ui-43" value="" style="endArrow=classic;html=1;exitX=1;exitY=0.5;exitDx=0;exitDy=0;entryX=1;entryY=0.5;entryDx=0;entryDy=0;" edge="1" parent="1" source="7nph9EpMlqqTChqG_4Ui-36" target="7nph9EpMlqqTChqG_4Ui-5">
          <mxGeometry width="50" height="50" relative="1" as="geometry">
            <mxPoint x="800" y="770" as="sourcePoint" />
            <mxPoint x="830" y="60" as="targetPoint" />
            <Array as="points">
              <mxPoint x="830" y="737" />
              <mxPoint x="830" y="80" />
            </Array>
          </mxGeometry>
        </mxCell>
      </root>
    </mxGraphModel>
  </diagram>
</mxfile>
